<svg xmlns="http://www.w3.org/2000/svg" width="112.299" height="119.511" viewBox="0 0 112.299 119.511">
  <g id="Info" transform="translate(-3.992 -4.007)">
    <path id="Path_12445" data-name="Path 12445" d="M254.9,171.644s-40.756,16.739-45.123,18.559-6.55,6.186-6.55,10.553-3.275,61.347,51.673,88.9c0,0,4.987,1.38,8.771,0s51.818-24.669,51.818-89.078c0,0,0-6.55-7.642-10.189s-44.589-18.741-44.589-18.741S258.717,169.643,254.9,171.644Z" transform="translate(-199.193 -166.748)" fill="#ffa200"/>
    <path id="Path_12446" data-name="Path 12446" d="M292.705,215.286v89.3s-41.12-19.794-40.756-71.831Z" transform="translate(-232.635 -197.29)" opacity="0.1"/>
    <g id="info-2" data-name="info" transform="translate(35.542 35.553)">
      <path id="Path_12448" data-name="Path 12448" d="M16.5,17.215a2.245,2.245,0,0,1,4.491,0V30.687a2.245,2.245,0,1,1-4.491,0Z" transform="translate(6.708 5.948)" fill="#fff"/>
      <path id="Path_12449" data-name="Path 12449" d="M18.745,9.076a2.245,2.245,0,1,0,2.245,2.245A2.245,2.245,0,0,0,18.745,9.076Z" transform="translate(6.708 3.019)" fill="#fff"/>
      <path id="Path_12450" data-name="Path 12450" d="M25.453,3A22.453,22.453,0,1,0,47.906,25.453,22.454,22.454,0,0,0,25.453,3ZM7.491,25.453A17.963,17.963,0,1,0,25.453,7.491,17.962,17.962,0,0,0,7.491,25.453Z" transform="translate(0 0)" fill="#fff" fill-rule="evenodd"/>
    </g>
  </g>
</svg>
