<svg xmlns="http://www.w3.org/2000/svg" width="112.299" height="119.511" viewBox="0 0 112.299 119.511">
  <g id="Group_3333" data-name="Group 3333" transform="translate(-3.993 -4.007)">
    <path id="Path_12445" data-name="Path 12445" d="M254.9,171.644s-40.756,16.739-45.123,18.559-6.55,6.186-6.55,10.553-3.275,61.347,51.673,88.9c0,0,4.987,1.38,8.771,0s51.818-24.669,51.818-89.078c0,0,0-6.55-7.642-10.189s-44.589-18.741-44.589-18.741S258.717,169.643,254.9,171.644Z" transform="translate(-199.193 -166.748)" fill="#0fc6c2"/>
    <path id="Path_12446" data-name="Path 12446" d="M292.705,215.286v89.3s-41.12-19.794-40.756-71.831Z" transform="translate(-232.635 -197.29)" opacity="0.1"/>
    <path id="Path_12447" data-name="Path 12447" d="M164.334,181l-13.1-16.842,7.618-5.925,6.2,7.974,20.952-22.118,7.007,6.638Z" transform="translate(-111.545 -101.823)" fill="#fff"/>
  </g>
</svg>
