<svg xmlns="http://www.w3.org/2000/svg" width="112.299" height="119.511" viewBox="0 0 112.299 119.511">
  <g id="Group_3333" data-name="Group 3333" transform="translate(-3.993 -4.007)">
    <path id="Path_12445" data-name="Path 12445" d="M254.9,171.644s-40.756,16.739-45.123,18.559-6.55,6.186-6.55,10.553-3.275,61.347,51.673,88.9c0,0,4.987,1.38,8.771,0s51.818-24.669,51.818-89.078c0,0,0-6.55-7.642-10.189s-44.589-18.741-44.589-18.741S258.717,169.643,254.9,171.644Z" transform="translate(-199.193 -166.748)" fill="#ed1e54"/>
    <path id="Path_12446" data-name="Path 12446" d="M292.705,215.286v89.3s-41.12-19.794-40.756-71.831Z" transform="translate(-232.635 -197.29)" opacity="0.1"/>
    <path id="fi-rr-cross-small" d="M43.851,6.616h0a3.1,3.1,0,0,0-4.388,0l-14.23,14.23L11,6.616a3.1,3.1,0,0,0-4.388,0h0a3.1,3.1,0,0,0,0,4.388l14.23,14.23L6.616,39.463a3.1,3.1,0,0,0,0,4.388h0a3.1,3.1,0,0,0,4.388,0l14.23-14.23,14.23,14.23a3.1,3.1,0,0,0,4.388,0h0a3.1,3.1,0,0,0,0-4.388l-14.23-14.23L43.851,11A3.1,3.1,0,0,0,43.851,6.616Z" transform="translate(34.836 35.487)" fill="#fff"/>
  </g>
</svg>
