<svg xmlns="http://www.w3.org/2000/svg" width="112.299" height="119.511" viewBox="0 0 112.299 119.511">
  <g id="Question_Mark" data-name="Question Mark" transform="translate(-3.992 -4.007)">
    <path id="Path_12445" data-name="Path 12445" d="M254.9,171.644s-40.756,16.739-45.123,18.559-6.55,6.186-6.55,10.553-3.275,61.347,51.673,88.9c0,0,4.987,1.38,8.771,0s51.818-24.669,51.818-89.078c0,0,0-6.55-7.642-10.189s-44.589-18.741-44.589-18.741S258.717,169.643,254.9,171.644Z" transform="translate(-199.193 -166.748)" fill="#528af7"/>
    <path id="Path_12446" data-name="Path 12446" d="M292.705,215.286v89.3s-41.12-19.794-40.756-71.831Z" transform="translate(-232.635 -197.29)" opacity="0.1"/>
    <path id="question" d="M25.453,47.906A22.453,22.453,0,1,1,47.906,25.453,22.453,22.453,0,0,1,25.453,47.906Zm0-4.491A17.963,17.963,0,1,0,7.491,25.453,17.962,17.962,0,0,0,25.453,43.416Zm-2.245-8.981H27.7v4.491H23.208Zm0-4.473s4.491-.018,4.491,0c0-2.25,6.736-4.509,6.736-9a8.981,8.981,0,1,0-17.963,0h4.491a4.491,4.491,0,0,1,8.981,0C29.944,22.983,23.208,26.276,23.208,29.962Z" transform="translate(35.542 35.553)" fill="#fff" fill-rule="evenodd"/>
  </g>
</svg>
