<svg width="18" height="20" viewBox="0 0 18 20" fill="none" xmlns="http://www.w3.org/2000/svg">
<path fill-rule="evenodd" clip-rule="evenodd" d="M9 2.608C7.758 0.174996 4.12 -0.147004 2.577 2.422C2.24662 2.96502 2.06412 3.58506 2.04763 4.22048C2.03114 4.8559 2.18124 5.48456 2.483 6.044C1.78742 6.16569 1.15705 6.52885 0.70287 7.06955C0.248685 7.61026 -0.000207926 8.29385 1.30333e-07 9V17C1.30333e-07 17.7956 0.316071 18.5587 0.87868 19.1213C1.44129 19.6839 2.20435 20 3 20H15C15.7956 20 16.5587 19.6839 17.1213 19.1213C17.6839 18.5587 18 17.7956 18 17V9C18.0002 8.29385 17.7513 7.61026 17.2971 7.06955C16.8429 6.52885 16.2126 6.16569 15.517 6.044C15.8188 5.48456 15.9689 4.8559 15.9524 4.22048C15.9359 3.58506 15.7534 2.96502 15.423 2.422C13.88 -0.147004 10.242 0.174996 9 2.608ZM7.782 5.998L7.379 3.986C7.078 2.481 5.082 2.136 4.292 3.451C3.62 4.571 4.425 5.994 5.73 5.996L7.782 5.998ZM8 8H3C2.73478 8 2.48043 8.10535 2.29289 8.29289C2.10536 8.48043 2 8.73478 2 9V12H8V8ZM8 14H2V17C2 17.2652 2.10536 17.5196 2.29289 17.7071C2.48043 17.8946 2.73478 18 3 18H8V14ZM10 18V14H16V17C16 17.2652 15.8946 17.5196 15.7071 17.7071C15.5196 17.8946 15.2652 18 15 18H10ZM16 12H10V8H15C15.2652 8 15.5196 8.10535 15.7071 8.29289C15.8946 8.48043 16 8.73478 16 9V12ZM10.218 5.998L12.27 5.996C13.575 5.994 14.38 4.57 13.708 3.451C12.918 2.136 10.922 2.481 10.621 3.986L10.218 5.998Z" fill="white"/>
</svg>
