<svg width="15" height="16" viewBox="0 0 15 16" fill="none" xmlns="http://www.w3.org/2000/svg">
<path d="M7.95011 7.52552V0.433979C7.95011 0.19288 7.75724 0 7.51613 0C7.27503 0 7.08215 0.19288 7.08215 0.433979V7.52552C6.07596 7.72805 5.31409 8.61851 5.31409 9.68578C5.31409 10.753 6.07596 11.6435 7.08215 11.846V15.0028C7.08215 15.2439 7.27503 15.4368 7.51613 15.4368C7.75724 15.4368 7.95011 15.2439 7.95011 15.0028V11.846C8.95631 11.6435 9.71818 10.753 9.71818 9.68578C9.71818 8.62172 8.95952 7.72805 7.95011 7.52552ZM7.51613 11.0199C6.77998 11.0199 6.18205 10.4219 6.18205 9.68578C6.18205 8.94962 6.77998 8.35169 7.51613 8.35169C8.25229 8.35169 8.85022 8.94962 8.85022 9.68578C8.85022 10.4219 8.25229 11.0199 7.51613 11.0199Z" fill="#7E8389"/>
<path d="M2.63602 3.88653V0.433979C2.63602 0.19288 2.44314 0 2.20204 0C1.96094 0 1.76806 0.19288 1.76806 0.433979V3.88653C0.761875 4.08905 0 4.97951 0 6.04678C0 7.11405 0.761875 8.00451 1.76806 8.20703V15.0028C1.76806 15.2439 1.96094 15.4368 2.20204 15.4368C2.44314 15.4368 2.63602 15.2439 2.63602 15.0028V8.20382C3.64221 8.00129 4.40409 7.11083 4.40409 6.04356C4.40409 4.9763 3.64221 4.08905 2.63602 3.88653ZM2.20204 7.38086C1.46589 7.38086 0.867959 6.78294 0.867959 6.04678C0.867959 5.31062 1.46589 4.71269 2.20204 4.71269C2.9382 4.71269 3.53613 5.31062 3.53613 6.04678C3.53613 6.78294 2.93499 7.38086 2.20204 7.38086Z" fill="#7E8389"/>
<path d="M13.232 3.88653V0.433979C13.232 0.19288 13.0391 0 12.798 0C12.5569 0 12.364 0.19288 12.364 0.433979V3.88653C11.3578 4.08905 10.5959 4.97951 10.5959 6.04678C10.5959 7.11405 11.3578 8.00451 12.364 8.20703V15.006C12.364 15.2471 12.5569 15.44 12.798 15.44C13.0391 15.44 13.232 15.2471 13.232 15.006V8.20382C14.2382 8.00129 15 7.11083 15 6.04356C15 4.9763 14.2414 4.08905 13.232 3.88653ZM12.798 7.38086C12.0618 7.38086 11.4639 6.78294 11.4639 6.04678C11.4639 5.31062 12.0618 4.71269 12.798 4.71269C13.5341 4.71269 14.1321 5.31062 14.1321 6.04678C14.1321 6.78294 13.5341 7.38086 12.798 7.38086Z" fill="#7E8389"/>
</svg>
